<?xml version="1.0" encoding="utf-8"?>
<!-- Generator: Adobe Illustrator 18.1.1, SVG Export Plug-In . SVG Version: 6.00 Build 0)  -->
<!DOCTYPE svg PUBLIC "-//W3C//DTD SVG 1.1//EN" "http://www.w3.org/Graphics/SVG/1.1/DTD/svg11.dtd">
<svg version="1.1" id="Layer_1" xmlns="http://www.w3.org/2000/svg" xmlns:xlink="http://www.w3.org/1999/xlink" x="0px" y="0px"
	 width="208px" height="50px" viewBox="0 0 208 50" enable-background="new 0 0 208 50" xml:space="preserve">
<g>
	<path fill="#FFFFFF" d="M8.8,22c-0.6-0.5-1.3-0.8-2.1-0.8c-0.6,0-1.4,0.3-1.4,1c0,0.7,0.9,1,1.4,1.2l0.8,0.2
		c1.7,0.5,3.1,1.4,3.1,3.4c0,1.2-0.3,2.5-1.3,3.3c-1,0.8-2.3,1.2-3.5,1.2c-1.6,0-3.1-0.5-4.3-1.4l1.4-2.6c0.8,0.7,1.8,1.3,2.9,1.3
		c0.8,0,1.6-0.4,1.6-1.2c0-0.9-1.3-1.2-2-1.4C3.3,25.6,2,25,2,22.6c0-2.5,1.8-4.1,4.3-4.1c1.2,0,2.8,0.4,3.9,1L8.8,22z"/>
	<path fill="#FFFFFF" d="M15.3,29l-0.9,2.1H11l4.8-12.4h3.5l4.7,12.4h-3.4L19.7,29H15.3z M17.5,22.6L17.5,22.6l-1.4,3.9h2.7
		L17.5,22.6z"/>
	<path fill="#FFFFFF" d="M24.9,18.8h3.2l5.9,7.6h0v-7.6h3.2v12.4h-3.2l-5.9-7.6h0v7.6h-3.2V18.8z"/>
	<path fill="#FFFFFF" d="M39.4,18.8h4.6c3.4,0,6.3,2.7,6.3,6.2s-2.9,6.2-6.3,6.2h-4.6V18.8z M42.6,28.5h0.7c1.9,0,3.6-1,3.6-3.5
		c0-2.2-1.5-3.5-3.5-3.5h-0.8V28.5z"/>
	<path fill="#FFFFFF" d="M56.9,26.3l3-7.5h3.5l-5.3,12.4h-2.5l-5.2-12.4h3.5L56.9,26.3z"/>
	<path fill="#FFFFFF" d="M67.4,31.2h-3.2V18.8h3.2V31.2z"/>
	<path fill="#FFFFFF" d="M76.6,18.8h4l-4.9,5.9l5.4,6.5h-4.2l-4.1-5.4h0v5.4h-3.2V18.8h3.2v5.1h0L76.6,18.8z"/>
	<path fill="#FFFFFF" d="M85.1,29l-0.9,2.1h-3.4l4.8-12.4h3.5l4.7,12.4h-3.4L89.5,29H85.1z M87.3,22.6L87.3,22.6L86,26.6h2.7
		L87.3,22.6z"/>
	<path fill="#FFFFFF" d="M107.2,22c-0.6-0.5-1.3-0.8-2.1-0.8c-0.6,0-1.4,0.3-1.4,1c0,0.7,0.9,1,1.4,1.2l0.8,0.2
		c1.7,0.5,3.1,1.4,3.1,3.4c0,1.2-0.3,2.5-1.3,3.3c-1,0.8-2.3,1.2-3.5,1.2c-1.6,0-3.1-0.5-4.3-1.4l1.4-2.6c0.8,0.7,1.8,1.3,2.9,1.3
		c0.8,0,1.6-0.4,1.6-1.2c0-0.9-1.3-1.2-2-1.4c-2-0.6-3.3-1.1-3.3-3.5c0-2.5,1.8-4.1,4.3-4.1c1.2,0,2.8,0.4,3.9,1L107.2,22z"/>
	<path fill="#FFFFFF" d="M115.4,31.2h-3.2v-9.6h-2.7v-2.7h8.5v2.7h-2.7V31.2z"/>
	<path fill="#FFFFFF" d="M132.3,24.8c0,4-2.9,6.8-6.8,6.8c-4,0-6.8-2.8-6.8-6.8c0-3.7,3.3-6.4,6.8-6.4C129,18.4,132.3,21,132.3,24.8
		z M121.9,24.8c0,2.1,1.6,3.7,3.5,3.7s3.5-1.6,3.5-3.7c0-1.7-1.6-3.3-3.5-3.3S121.9,23.1,121.9,24.8z"/>
	<path fill="#FFFFFF" d="M144,31.2h-4l-3-4.8h0v4.8h-3.2V18.8h4.8c2.4,0,4.3,1.2,4.3,3.8c0,1.7-1,3.2-2.7,3.5L144,31.2z M137,24.4
		h0.3c1,0,2.2-0.2,2.2-1.5c0-1.3-1.2-1.5-2.2-1.5H137V24.4z"/>
	<path fill="#FFFFFF" d="M151.7,22c-0.6-0.5-1.3-0.8-2.1-0.8c-0.6,0-1.4,0.3-1.4,1c0,0.7,0.9,1,1.4,1.2l0.8,0.2
		c1.7,0.5,3.1,1.4,3.1,3.4c0,1.2-0.3,2.5-1.3,3.3c-1,0.8-2.3,1.2-3.5,1.2c-1.6,0-3.1-0.5-4.3-1.4l1.4-2.6c0.8,0.7,1.8,1.3,2.9,1.3
		c0.8,0,1.6-0.4,1.6-1.2c0-0.9-1.3-1.2-2-1.4c-2-0.6-3.3-1.1-3.3-3.5c0-2.5,1.8-4.1,4.3-4.1c1.2,0,2.8,0.4,3.9,1L151.7,22z"/>
	<path fill="#FFFFFF" d="M158.2,21.5v2.1h3.6v2.7h-3.6v2.1h3.8v2.7h-7V18.8h7v2.7H158.2z"/>
	<path fill="#FFFFFF" d="M164,18.8h3.2l5.9,7.6h0v-7.6h3.2v12.4h-3.2l-5.9-7.6h0v7.6H164V18.8z"/>
	<path fill="#FFFFFF" d="M183.4,31.2h-3.2v-9.6h-2.7v-2.7h8.5v2.7h-2.7V31.2z"/>
	<path fill="#FFFFFF" d="M190.4,21.5v2.1h3.6v2.7h-3.6v2.1h3.8v2.7h-7V18.8h7v2.7H190.4z"/>
	<path fill="#FFFFFF" d="M206.5,31.2h-4l-3-4.8h0v4.8h-3.2V18.8h4.8c2.4,0,4.3,1.2,4.3,3.8c0,1.7-1,3.2-2.7,3.5L206.5,31.2z
		 M199.5,24.4h0.3c1,0,2.2-0.2,2.2-1.5c0-1.3-1.2-1.5-2.2-1.5h-0.3V24.4z"/>
</g>
</svg>
